<svg viewBox="0 0 1000 300" width="1000" height="300" xmlns="http://www.w3.org/2000/svg" role="img">
<!-- Made with Foundry Studio. Self-contained: no scripts, no
     external requests. Safe to commit and reference forever. -->
<style>
.e0_0{stroke-dasharray:1}
.e0_0{transform-box:fill-box;transform-origin:center;
  animation:a0_0 0.8s ease 0.8s both}
@keyframes a0_0{from{stroke-dashoffset:1}to{stroke-dashoffset:0}}
.e0_1{stroke-dasharray:1}
.e0_1{transform-box:fill-box;transform-origin:center;
  animation:a0_1 0.8s ease 0.7s both}
@keyframes a0_1{from{stroke-dashoffset:1}to{stroke-dashoffset:0}}
.e0_2{stroke-dasharray:1}
.e0_2{transform-box:fill-box;transform-origin:center;
  animation:a0_2 0.7s ease 1s both}
@keyframes a0_2{from{stroke-dashoffset:1}to{stroke-dashoffset:0}}
.e0_3{stroke-dasharray:1}
.e0_3{transform-box:fill-box;transform-origin:center;
  animation:a0_3 1s ease 0.3s both}
@keyframes a0_3{from{stroke-dashoffset:1}to{stroke-dashoffset:0}}
.e0_4{stroke-dasharray:1}
.e0_4{transform-box:fill-box;transform-origin:center;
  animation:a0_4 0.9s ease 0.5s both}
@keyframes a0_4{from{stroke-dashoffset:1}to{stroke-dashoffset:0}}

.e0_5{transform-box:fill-box;transform-origin:center;
  animation:a0_5 0.7s ease 0.4s both}
@keyframes a0_5{from{transform:translateX(50px);opacity:0}to{transform:none;opacity:1}}

.e0_6{transform-box:fill-box;transform-origin:center;
  animation:a0_6 0.5s ease 0.3s both}
@keyframes a0_6{from{transform:translateX(-50px);opacity:0}to{transform:none;opacity:1}}

.e0_7{transform-box:fill-box;transform-origin:center;
  animation:a0_7 0.5s ease 0.6s both}
@keyframes a0_7{from{opacity:0}to{opacity:1}}
.t0_8{animation:a0_8 0.5s steps(12,end) 0.8s both}
@keyframes a0_8{from{width:0}to{width:255px}}
@media(prefers-reduced-motion:reduce){*{animation:none !important}}
</style>
<defs><mask id="m0_5"><rect x="-1501" y="-1880" width="4000" height="4000" fill="white"/><ellipse cx="790" cy="154" rx="70" ry="30" fill="black"/><ellipse cx="454" cy="126" rx="70" ry="30" fill="black"/><ellipse cx="709" cy="96" rx="70" ry="30" fill="black"/><ellipse cx="547" cy="177" rx="70" ry="30" fill="black"/><ellipse cx="488.5" cy="168" rx="171.5" ry="41" fill="black"/><ellipse cx="488.5" cy="168" rx="171.5" ry="41" fill="black"/><ellipse cx="491.5" cy="164" rx="171.5" ry="41" fill="black"/></mask><mask id="m0_6"><rect x="-1788" y="-1839" width="4000" height="4000" fill="white"/><ellipse cx="494.5" cy="161" rx="171.5" ry="41" fill="black"/><ellipse cx="178" cy="152" rx="70" ry="30" fill="black"/><ellipse cx="312" cy="234" rx="70" ry="30" fill="black"/><ellipse cx="166" cy="232" rx="70" ry="30" fill="black"/><rect x="445" y="197" width="140" height="60" rx="30" fill="black"/><ellipse cx="492.5" cy="164" rx="171.5" ry="41" fill="black"/></mask><clipPath id="t0_8clip"><rect class="t0_8" x="368" y="136" width="0" height="51.8"/></clipPath></defs>
  <g transform="rotate(60 567 132)"><line x1="477" y1="132" x2="657" y2="132" class="e0_0" fill="#00000000" stroke="#f778ba" stroke-width="16" opacity="1" pathLength="1"/></g>
  <g transform="rotate(60 466 133)"><line x1="376" y1="133" x2="556" y2="133" class="e0_1" fill="#00000000" stroke="#f778ba" stroke-width="16" opacity="1" pathLength="1"/></g>
  <g transform="rotate(60 670 128)"><line x1="580" y1="128" x2="760" y2="128" class="e0_2" fill="#00000000" stroke="#f778ba" stroke-width="16" opacity="1" pathLength="1"/></g>
  <g transform="rotate(60 265 143)"><line x1="175" y1="143" x2="355" y2="143" class="e0_3" fill="#00000000" stroke="#f778ba" stroke-width="16" opacity="1" pathLength="1"/></g>
  <g transform="rotate(60 364 138)"><line x1="274" y1="138" x2="454" y2="138" class="e0_4" fill="#00000000" stroke="#f778ba" stroke-width="16" opacity="1" pathLength="1"/></g>
  <rect x="499" y="120" width="243" height="49" rx="24.5" class="e0_5" fill="#463f1a" stroke="#00000000" stroke-width="0" opacity="1" mask="url(#m0_5)"/>
  <rect x="212" y="161" width="257" height="49" rx="8" class="e0_6" fill="#60492c" stroke="#00000000" stroke-width="0" opacity="1" mask="url(#m0_6)"/>
  <ellipse cx="492.5" cy="164" rx="171.5" ry="41" class="e0_7" fill="#208aae" stroke="#21262d" stroke-width="0" opacity="1"/>
  <text x="368" y="173" font-size="37" font-weight="600" font-family="ui-monospace,Menlo,Consolas,monospace" class="e0_8" fill="#f9ebe0" stroke="#00000000" stroke-width="0" opacity="1" clip-path="url(#t0_8clip)">Hi! I'm Luis</text>
  <ellipse cx="48" cy="-133" rx="70" ry="30" class="e0_9" fill="#f778ba" stroke="#00000000" stroke-width="0" opacity="1"/>
</svg>